HIERARCHY
ROOT Hips
{
	OFFSET 0.00000 0.00000 0.00000
	CHANNELS 6 Xposition Yposition Zposition Zrotation Yrotation Xrotation 
	JOINT LHipJoint
	{
		OFFSET 0 0 0
		CHANNELS 3 Zrotation Yrotation Xrotation
		JOINT LeftHip
		{
			OFFSET 1.54859 -1.61379 0.86856
			CHANNELS 3 Zrotation Yrotation Xrotation
			JOINT LeftKnee
			{
				OFFSET 2.25087 -6.18423 0.00000
				CHANNELS 3 Zrotation Yrotation Xrotation
				JOINT LeftAnkle
				{
					OFFSET 2.40328 -6.60297 0.00000
					CHANNELS 3 Zrotation Yrotation Xrotation
					JOINT LeftToe
					{
						OFFSET 0.17435 -0.47901 2.02453
						CHANNELS 3 Zrotation Yrotation Xrotation
						End Site
						{
							OFFSET 0.00000 -0.00000 1.04844
						}
					}
				}
			}
		}
	}
	JOINT RHipJoint
	{
		OFFSET 0 0 0
		CHANNELS 3 Zrotation Yrotation Xrotation
		JOINT RightHip
		{
			OFFSET -1.54669 -1.61379 0.86856
			CHANNELS 3 Zrotation Yrotation Xrotation
			JOINT RightKnee
			{
				OFFSET -2.28132 -6.26789 0.00000
				CHANNELS 3 Zrotation Yrotation Xrotation
				JOINT RightAnkle
				{
					OFFSET -2.51636 -6.91365 0.00000
					CHANNELS 3 Zrotation Yrotation Xrotation
					JOINT RightToe
					{
						OFFSET -0.15124 -0.41552 2.21090
						CHANNELS 3 Zrotation Yrotation Xrotation
						End Site
						{
							OFFSET -0.00000 -0.00000 1.13399
						}
					}
				}
			}
		}
	}
	JOINT lowerback
	{
		OFFSET 0 0 0
		CHANNELS 3 Zrotation Yrotation Xrotation
		JOINT Chest
		{
			OFFSET -0.04287 2.26161 -0.25690
			CHANNELS 3 Zrotation Yrotation Xrotation
			JOINT Chest2
			{
				OFFSET 0.02248 2.28395 -0.10140
				CHANNELS 3 Zrotation Yrotation Xrotation
				JOINT lowerneck
				{
					OFFSET 0 0 0
					CHANNELS 3 Zrotation Yrotation Xrotation
					JOINT Neck
					{
						OFFSET -0.11644 1.38496 0.11345
						CHANNELS 3 Zrotation Yrotation Xrotation
						JOINT Head
						{
							OFFSET 0.29383 1.36600 0.06642
							CHANNELS 3 Zrotation Yrotation Xrotation
							End Site
							{
								OFFSET 0.11075 1.41395 -0.00294
							}
						}
					}
				}
				JOINT LeftCollar
				{
					OFFSET 0 0 0
					CHANNELS 3 Zrotation Yrotation Xrotation
					JOINT LeftShoulder
					{
						OFFSET 3.51628 0.59542 -0.30346
CHANNELS 3 Zrotation Xrotation Yrotation
						JOINT LeftElbow
						{
OFFSET 0 -4.764050 0.000000
CHANNELS 3 Zrotation Xrotation Yrotation
							JOINT LeftWrist
							{
OFFSET 0 -3.137590 -0.000000
CHANNELS 3 Zrotation Xrotation Yrotation
								JOINT lhand
								{
									OFFSET 0 0 0
CHANNELS 3 Zrotation Xrotation Yrotation
									JOINT LFingers
									{
OFFSET 0 -0.732260 -0.000000
CHANNELS 3 Zrotation Xrotation Yrotation
										End Site
										{
OFFSET 0 -0.590370 -0.000000
										}
									}
								}
								JOINT LThumb
								{
OFFSET 0 0.000000 0.000000
CHANNELS 3 Zrotation Xrotation Yrotation
									End Site
									{
OFFSET 0 -0.599380 0.599380
									}
								}
							}
						}
					}
				}
				JOINT RightCollar
				{
					OFFSET 0 0 0
					CHANNELS 3 Zrotation Yrotation Xrotation
					JOINT RightShoulder
					{
						OFFSET -3.30990 0.84213 -0.36430
CHANNELS 3 Zrotation Xrotation Yrotation
						JOINT RightElbow
						{
OFFSET 0 -5.101610 -0.000000
CHANNELS 3 Zrotation Xrotation Yrotation
							JOINT RightWrist
							{
OFFSET 0 -3.232670 -0.000000
CHANNELS 3 Zrotation Xrotation Yrotation
								JOINT rhand
								{
									OFFSET 0 0 0
CHANNELS 3 Zrotation Xrotation Yrotation
									JOINT RFingers
									{
OFFSET 0 -0.702000 -0.000000
CHANNELS 3 Zrotation Xrotation Yrotation
										End Site
										{
OFFSET 0 -0.565970 -0.000000
										}
									}
								}
								JOINT RThumb
								{
OFFSET 0 0.000000 0.000000
CHANNELS 3 Zrotation Xrotation Yrotation
									End Site
									{
OFFSET 0 -0.574610 0.574610
									}
								}
							}
						}
					}
				}
			}
		}
	}
}
MOTION
Frames: 11
Frame Time: 0.008333333333333333
-28.151800 15.257000 -1.136300 122.376000 84.256100 136.557000 0.000000 0.000000 0.000000 -19.884400 6.099300 19.518500 0.756300 5.554100 15.495900 0.091100 3.849600 5.619900 0.821000 -5.781600 -16.151900 0.000000 0.000000 0.000000 6.026900 19.911300 -63.574700 -19.065700 -19.979100 87.267400 -0.253100 0.136700 -9.455800 -3.264200 11.110900 -32.654900 -11.746700 -4.522000 16.518500 2.620400 -7.268700 6.137900 10.583700 -3.760200 -0.664300 -13.428700 1.543900 -11.844100 12.178500 3.789000 -1.661900 6.067000 2.315200 0.955800 0.000000 -0.000000 0.000000 7.615400 -2.678400 -42.352000 85.152100 -59.911000 55.802800 37.675100 -8.400200 -18.597100 0.000000 0.000000 0.000000 -7.125000 0.000000 0.000000 9.975700 52.738100 -1.914800 0.000000 -0.000000 0.000000 -7.070800 -19.612600 1.810600 -85.964000 -59.938400 -56.505500 -22.752800 -54.880800 -26.051000 0.000000 0.000000 0.000000 7.125000 0.000000 -0.000000 4.255200 2.119600 4.106300
-28.024291 15.264591 -1.142016 121.150858 84.372646 135.317254 0.000000 0.000000 0.000000 -20.012341 6.010881 20.204489 0.727849 5.445649 15.185350 0.045033 4.859932 5.169167 0.822569 -5.786901 -16.167280 0.000000 0.000000 0.000000 5.986837 19.967680 -63.566334 -18.661683 -19.938983 86.079761 -0.254993 0.513835 -9.406398 -3.264452 11.111297 -32.656198 -11.734548 -4.558349 16.401972 2.664988 -7.305301 6.122935 10.616713 -3.784919 -0.604476 -12.513441 1.160779 -11.443490 11.713848 3.213769 -2.783153 5.746083 2.007481 0.638832 0.000000 0.000000 0.000000 7.810449 -2.519952 -42.472260 85.320302 -59.916589 55.948357 37.524459 -8.789757 -18.625497 0.000000 0.000000 0.000000 -7.125000 0.000000 0.000000 9.811446 52.739200 -1.883085 0.000000 0.000000 0.000000 -6.842774 -19.661011 1.981290 -86.751156 -59.949434 -57.187054 -22.562204 -54.504242 -25.842753 0.000000 0.000000 0.000000 7.125000 0.000000 0.000000 4.347081 2.371696 4.173534
-27.896783 15.272181 -1.147731 119.925716 84.489192 134.077508 0.000000 0.000000 0.000000 -20.140282 5.922461 20.890479 0.699397 5.337198 14.874801 -0.001034 5.870264 4.718434 0.824137 -5.792202 -16.182659 0.000000 0.000000 0.000000 5.946774 20.024060 -63.557968 -18.257665 -19.898866 84.892121 -0.256886 0.890969 -9.356995 -3.264705 11.111693 -32.657496 -11.722395 -4.594697 16.285444 2.709577 -7.341902 6.107970 10.649726 -3.809638 -0.544653 -11.598181 0.777659 -11.042881 11.249195 2.638539 -3.904406 5.425166 1.699762 0.321863 0.000000 0.000000 0.000000 8.005498 -2.361504 -42.592521 85.488505 -59.922179 56.093913 37.373818 -9.179315 -18.653895 0.000000 0.000000 0.000000 -7.125000 0.000000 0.000000 9.647192 52.740300 -1.851370 0.000000 0.000000 0.000000 -6.614748 -19.709421 2.151981 -87.538312 -59.960469 -57.868608 -22.371609 -54.127685 -25.634506 0.000000 0.000000 0.000000 7.125000 0.000000 0.000000 4.438962 2.623792 4.240768
-27.769274 15.279772 -1.153447 118.700574 84.605739 132.837761 0.000000 0.000000 0.000000 -20.268224 5.834042 21.576468 0.670946 5.228748 14.564251 -0.047100 6.880596 4.267700 0.825706 -5.797503 -16.198039 0.000000 0.000000 0.000000 5.906712 20.080440 -63.549602 -17.853648 -19.858749 83.704482 -0.258779 1.268104 -9.307593 -3.264957 11.112090 -32.658794 -11.710243 -4.631046 16.168915 2.754165 -7.378503 6.093005 10.682739 -3.834358 -0.484829 -10.682922 0.394538 -10.642271 10.784543 2.063308 -5.025658 5.104249 1.392043 0.004895 0.000000 0.000000 0.000000 8.200547 -2.203056 -42.712781 85.656707 -59.927768 56.239470 37.223177 -9.568872 -18.682292 0.000000 0.000000 0.000000 -7.125000 0.000000 0.000000 9.482939 52.741399 -1.819655 0.000000 0.000000 0.000000 -6.386722 -19.757832 2.322671 -88.325468 -59.971503 -58.550162 -22.181013 -53.751127 -25.426259 0.000000 0.000000 0.000000 7.125000 0.000000 0.000000 4.530843 2.875888 4.308002
-27.641766 15.287363 -1.159162 117.475432 84.722285 131.598015 0.000000 0.000000 0.000000 -20.396165 5.745623 22.262457 0.642494 5.120297 14.253702 -0.093167 7.890928 3.816967 0.827274 -5.802803 -16.213419 0.000000 0.000000 0.000000 5.866649 20.136820 -63.541236 -17.449631 -19.818633 82.516842 -0.260673 1.645238 -9.258191 -3.265210 11.112487 -32.660093 -11.698091 -4.667394 16.052387 2.798753 -7.415104 6.078040 10.715752 -3.859077 -0.425005 -9.767662 0.011418 -10.241661 10.319890 1.488077 -6.146911 4.783333 1.084325 -0.312073 0.000000 0.000000 0.000000 8.395596 -2.044608 -42.833042 85.824909 -59.933357 56.385026 37.072536 -9.958429 -18.710689 0.000000 0.000000 0.000000 -7.125000 0.000000 0.000000 9.318685 52.742499 -1.787941 0.000000 0.000000 0.000000 -6.158696 -19.806243 2.493362 -89.112624 -59.982538 -59.231716 -21.990417 -53.374570 -25.218012 0.000000 0.000000 0.000000 7.125000 0.000000 0.000000 4.622725 3.127985 4.375236
-27.514257 15.294953 -1.164878 116.250290 84.838831 130.358269 0.000000 0.000000 0.000000 -20.524106 5.657203 22.948447 0.614043 5.011846 13.943152 -0.139234 8.901259 3.366234 0.828843 -5.808104 -16.228798 0.000000 0.000000 0.000000 5.826586 20.193200 -63.532870 -17.045613 -19.778516 81.329203 -0.262566 2.022373 -9.208788 -3.265462 11.112883 -32.661391 -11.685939 -4.703743 15.935859 2.843342 -7.451705 6.063075 10.748765 -3.883796 -0.365181 -8.852403 -0.371703 -9.841052 9.855238 0.912846 -7.268164 4.462416 0.776606 -0.629041 0.000000 0.000000 0.000000 8.590645 -1.886160 -42.953302 85.993112 -59.938947 56.530583 36.921895 -10.347986 -18.739087 0.000000 0.000000 0.000000 -7.125000 0.000000 0.000000 9.154431 52.743599 -1.756226 0.000000 0.000000 0.000000 -5.930670 -19.854653 2.664052 -89.899780 -59.993572 -59.913270 -21.799822 -52.998012 -25.009765 0.000000 0.000000 0.000000 7.125000 0.000000 0.000000 4.714606 3.380081 4.442470
-27.387011 15.301685 -1.170372 114.989728 84.921822 129.083347 0.000000 0.000000 0.000000 -20.661242 5.599681 23.566310 0.594991 4.938039 13.732042 -0.200156 9.872890 2.888113 0.804660 -5.714980 -15.962285 0.000000 0.000000 0.000000 5.788348 20.208826 -63.506099 -16.648459 -19.719601 80.153106 -0.262250 2.361404 -9.154928 -3.255399 11.097279 -32.608715 -11.681918 -4.742415 15.845974 2.882932 -7.496445 6.036192 10.785492 -3.910266 -0.329645 -8.321462 -0.549179 -9.581945 9.534731 0.635411 -7.929700 4.295068 0.626538 -0.837555 0.000000 0.000000 0.000000 8.767068 -1.638162 -43.055754 86.249809 -59.945632 56.752789 36.746075 -10.693411 -18.698966 0.000000 0.000000 0.000000 -7.125000 0.000000 0.000000 8.965849 52.659256 -1.703332 0.000000 0.000000 0.000000 -5.711413 -19.880094 2.869051 -90.732639 -59.991076 -60.634343 -21.729296 -52.519577 -24.768919 0.000000 0.000000 0.000000 7.125000 0.000000 0.000000 4.730852 3.644407 4.436761
-27.260079 15.307382 -1.175601 113.686516 84.964409 127.766072 0.000000 0.000000 0.000000 -20.809449 5.579361 24.102145 0.587256 4.905946 13.640666 -0.278965 10.797922 2.377015 0.749470 -5.503343 -15.356349 0.000000 0.000000 0.000000 5.752306 20.175380 -63.457165 -16.259569 -19.638051 78.990907 -0.259275 2.654554 -9.095699 -3.232916 11.062409 -32.491051 -11.687687 -4.783884 15.788170 2.916504 -7.550986 5.994957 10.826691 -3.938843 -0.323353 -8.253272 -0.479042 -9.493219 9.387786 0.716547 -8.037700 4.312629 0.666294 -0.915481 0.000000 0.000000 0.000000 8.921063 -1.282339 -43.136763 86.613060 -59.953637 57.067287 36.539937 -10.985696 -18.576343 0.000000 0.000000 0.000000 -7.125000 0.000000 0.000000 8.747974 52.472032 -1.624937 0.000000 0.000000 0.000000 -5.502715 -19.877876 3.115360 -91.620529 -59.972289 -61.403000 -21.803346 -51.918473 -24.488822 0.000000 0.000000 0.000000 7.125000 0.000000 0.000000 4.656027 3.923458 4.343221
-27.133148 15.313080 -1.180830 112.383304 85.006996 126.448796 0.000000 0.000000 0.000000 -20.957656 5.559041 24.637980 0.579521 4.873852 13.549290 -0.357775 11.722954 1.865917 0.694280 -5.291706 -14.750413 0.000000 0.000000 0.000000 5.716263 20.141934 -63.408232 -15.870679 -19.556501 77.828708 -0.256300 2.947705 -9.036470 -3.210432 11.027539 -32.373387 -11.693457 -4.825353 15.730365 2.950076 -7.605527 5.953722 10.867889 -3.967421 -0.317060 -8.185083 -0.408905 -9.404493 9.240841 0.797682 -8.145700 4.330190 0.706050 -0.993407 0.000000 0.000000 0.000000 9.075057 -0.926516 -43.217772 86.976311 -59.961643 57.381785 36.333799 -11.277981 -18.453721 0.000000 0.000000 0.000000 -7.125000 0.000000 0.000000 8.530099 52.284808 -1.546543 0.000000 0.000000 0.000000 -5.294017 -19.875658 3.361668 -92.508419 -59.953502 -62.171657 -21.877395 -51.317369 -24.208725 0.000000 0.000000 0.000000 7.125000 0.000000 0.000000 4.581202 4.202509 4.249681
-27.006216 15.318777 -1.186058 111.080092 85.049583 125.131521 0.000000 0.000000 0.000000 -21.105863 5.538721 25.173816 0.571786 4.841759 13.457913 -0.436584 12.647985 1.354820 0.639090 -5.080069 -14.144477 0.000000 0.000000 0.000000 5.680221 20.108488 -63.359298 -15.481789 -19.474951 76.666509 -0.253325 3.240855 -8.977242 -3.187949 10.992669 -32.255723 -11.699227 -4.866822 15.672561 2.983648 -7.660068 5.912487 10.909088 -3.995999 -0.310768 -8.116893 -0.338768 -9.315767 9.093896 0.878817 -8.253700 4.347751 0.745806 -1.071333 0.000000 0.000000 0.000000 9.229052 -0.570693 -43.298781 87.339563 -59.969648 57.696283 36.127662 -11.570266 -18.331099 0.000000 0.000000 0.000000 -7.125000 0.000000 0.000000 8.312224 52.097584 -1.468148 0.000000 0.000000 0.000000 -5.085320 -19.873441 3.607977 -93.396308 -59.934714 -62.940314 -21.951445 -50.716265 -23.928629 0.000000 0.000000 0.000000 7.125000 0.000000 0.000000 4.506378 4.481560 4.156141
-26.879284 15.324475 -1.191287 109.776880 85.092170 123.814245 0.000000 0.000000 0.000000 -21.254070 5.518401 25.709651 0.564051 4.809665 13.366537 -0.515393 13.573017 0.843722 0.583900 -4.868433 -13.538541 0.000000 0.000000 0.000000 5.644179 20.075043 -63.310364 -15.092898 -19.393401 75.504310 -0.250350 3.534006 -8.918013 -3.165465 10.957799 -32.138059 -11.704996 -4.908291 15.614757 3.017220 -7.714609 5.871253 10.950287 -4.024576 -0.304475 -8.048704 -0.268631 -9.227041 8.946951 0.959952 -8.361700 4.365313 0.785563 -1.149259 0.000000 0.000000 0.000000 9.383047 -0.214870 -43.379790 87.702814 -59.977653 58.010782 35.921524 -11.862551 -18.208476 0.000000 0.000000 0.000000 -7.125000 0.000000 0.000000 8.094349 51.910360 -1.389753 0.000000 0.000000 0.000000 -4.876622 -19.871223 3.854285 -94.284198 -59.915927 -63.708971 -22.025494 -50.115162 -23.648532 0.000000 0.000000 0.000000 7.125000 0.000000 0.000000 4.431553 4.760611 4.062601
